<?xml version="1.0" encoding="UTF-8" standalone="no"?>
<!-- Created with Inkscape (http://www.inkscape.org/) -->

<svg
   xmlns:dc="http://purl.org/dc/elements/1.1/"
   xmlns:cc="http://creativecommons.org/ns#"
   xmlns:rdf="http://www.w3.org/1999/02/22-rdf-syntax-ns#"
   xmlns:svg="http://www.w3.org/2000/svg"
   xmlns="http://www.w3.org/2000/svg"
   xmlns:xlink="http://www.w3.org/1999/xlink"
   xmlns:sodipodi="http://sodipodi.sourceforge.net/DTD/sodipodi-0.dtd"
   xmlns:inkscape="http://www.inkscape.org/namespaces/inkscape"
   width="210mm"
   height="297mm"
   viewBox="0 0 210 297"
   version="1.1"
   id="svg8"
   inkscape:version="0.92.3 (2405546, 2018-03-11)"
   sodipodi:docname="logo.svg">
  <defs
     id="defs2">
    <linearGradient
       inkscape:collect="always"
       id="linearGradient4832">
      <stop
         style="stop-color:#000080;stop-opacity:1;"
         offset="0"
         id="stop4828" />
      <stop
         style="stop-color:#000080;stop-opacity:0;"
         offset="1"
         id="stop4830" />
    </linearGradient>
    <linearGradient
       inkscape:collect="always"
       id="linearGradient4824">
      <stop
         style="stop-color:#d40000;stop-opacity:1;"
         offset="0"
         id="stop4820" />
      <stop
         style="stop-color:#d40000;stop-opacity:0;"
         offset="1"
         id="stop4822" />
    </linearGradient>
    <linearGradient
       inkscape:collect="always"
       id="linearGradient4802">
      <stop
         style="stop-color:#000000;stop-opacity:1;"
         offset="0"
         id="stop4798" />
      <stop
         style="stop-color:#000000;stop-opacity:0;"
         offset="1"
         id="stop4800" />
    </linearGradient>
    <inkscape:perspective
       sodipodi:type="inkscape:persp3d"
       inkscape:vp_x="0 : 148.5 : 1"
       inkscape:vp_y="0 : 1000 : 0"
       inkscape:vp_z="210 : 148.5 : 1"
       inkscape:persp3d-origin="105 : 99 : 1"
       id="perspective3815" />
    <linearGradient
       inkscape:collect="always"
       xlink:href="#linearGradient4802"
       id="linearGradient4790"
       x1="78.425552"
       y1="44.262535"
       x2="88.559189"
       y2="58.815189"
       gradientUnits="userSpaceOnUse"
       gradientTransform="matrix(6.1339626,0,0,6.1339623,-472.24112,-236.33338)" />
    <linearGradient
       inkscape:collect="always"
       xlink:href="#linearGradient4824"
       id="linearGradient4826"
       x1="76.71241"
       y1="59.670979"
       x2="69.302689"
       y2="57.818546"
       gradientUnits="userSpaceOnUse"
       gradientTransform="matrix(5.8164274,0,0,5.8164274,-414.49447,-222.86679)" />
    <linearGradient
       inkscape:collect="always"
       xlink:href="#linearGradient4832"
       id="linearGradient4834"
       x1="70.718796"
       y1="67.394394"
       x2="81.287109"
       y2="67.51461"
       gradientUnits="userSpaceOnUse"
       gradientTransform="matrix(6.1360275,0,0,6.1360273,-413.69663,-261.86785)" />
  </defs>
  <sodipodi:namedview
     id="base"
     pagecolor="#ffffff"
     bordercolor="#666666"
     borderopacity="1.0"
     inkscape:pageopacity="0.0"
     inkscape:pageshadow="2"
     inkscape:zoom="0.7790655"
     inkscape:cx="392.59796"
     inkscape:cy="959.04164"
     inkscape:document-units="mm"
     inkscape:current-layer="layer1"
     showgrid="false"
     inkscape:measure-start="110.57,904.555"
     inkscape:measure-end="310.537,905.732"
     inkscape:snap-text-baseline="false"
     showguides="false"
     inkscape:window-width="1366"
     inkscape:window-height="705"
     inkscape:window-x="-8"
     inkscape:window-y="-8"
     inkscape:window-maximized="1" />
  <metadata
     id="metadata5">
    <rdf:RDF>
      <cc:Work
         rdf:about="">
        <dc:format>image/svg+xml</dc:format>
        <dc:type
           rdf:resource="http://purl.org/dc/dcmitype/StillImage" />
        <dc:title></dc:title>
      </cc:Work>
    </rdf:RDF>
  </metadata>
  <g
     inkscape:label="Capa 1"
     inkscape:groupmode="layer"
     id="layer1">
    <flowRoot
       xml:space="preserve"
       id="flowRoot3795"
       style="fill:black;fill-opacity:1;stroke:none;font-family:sans-serif;font-style:normal;font-weight:normal;font-size:40px;line-height:1.25;letter-spacing:0px;word-spacing:0px"><flowRegion
         id="flowRegion3797"><rect
           id="rect3799"
           width="0"
           height="65.871384"
           x="155.26826"
           y="92.102997" /></flowRegion><flowPara
         id="flowPara3801" /></flowRoot>    <text
       xml:space="preserve"
       style="font-style:normal;font-weight:normal;font-size:10.58333302px;line-height:1.25;font-family:sans-serif;letter-spacing:0px;word-spacing:0px;fill:#000000;fill-opacity:1;stroke:none;stroke-width:0.26458332"
       x="121.06563"
       y="42.731056"
       id="text3860"><tspan
         sodipodi:role="line"
         id="tspan3858"
         x="121.06563"
         y="52.386551"
         style="stroke-width:0.26458332" /></text>
    <text
       xml:space="preserve"
       style="font-style:normal;font-weight:normal;font-size:10.58333302px;line-height:1.25;font-family:sans-serif;letter-spacing:0px;word-spacing:0px;fill:#000000;fill-opacity:1;stroke:none;stroke-width:0.26458332"
       x="64.423096"
       y="36.195381"
       id="text3891"><tspan
         sodipodi:role="line"
         id="tspan3889"
         x="64.423096"
         y="45.850876"
         style="stroke-width:0.26458332" /></text>
    <text
       xml:space="preserve"
       style="font-style:normal;font-weight:normal;font-size:98.49150085px;line-height:1.25;font-family:sans-serif;letter-spacing:0px;word-spacing:0px;fill:url(#linearGradient4826);fill-opacity:1;stroke:none;stroke-width:1.5389297"
       x="-6.0684381"
       y="76.912613"
       id="text3903"
       transform="scale(1.2497581,0.80015486)"><tspan
         sodipodi:role="line"
         id="tspan3901"
         x="-6.0684381"
         y="76.912613"
         style="fill:url(#linearGradient4826);fill-opacity:1;stroke-width:1.5389297">D</tspan></text>
    <text
       xml:space="preserve"
       style="font-style:normal;font-weight:normal;font-size:130.53289795px;line-height:1.25;font-family:sans-serif;letter-spacing:0px;word-spacing:0px;fill:url(#linearGradient4834);fill-opacity:1;stroke:none;stroke-width:2.03957653"
       x="47.419689"
       y="88.287064"
       id="text3907"
       transform="scale(1.4389381,0.69495694)"><tspan
         sodipodi:role="line"
         id="tspan3905"
         x="47.419689"
         y="88.287064"
         style="fill:url(#linearGradient4834);fill-opacity:1;stroke-width:2.03957653">.</tspan></text>
    <text
       xml:space="preserve"
       style="font-style:normal;font-weight:normal;font-size:102.75405121px;line-height:1.25;font-family:sans-serif;letter-spacing:0px;word-spacing:0px;fill:url(#linearGradient4790);fill-opacity:1;stroke:none;stroke-width:1.60553205"
       x="93.020454"
       y="79.830566"
       id="text3911"
       transform="scale(1.2714398,0.78650989)"><tspan
         sodipodi:role="line"
         id="tspan3909"
         x="93.020454"
         y="79.830566"
         style="fill:url(#linearGradient4790);fill-opacity:1;stroke-width:1.60553205">C</tspan></text>
    <path
       style="fill:#ff0000;fill-opacity:0;stroke-width:0.52806854"
       d="M 32.879824,27.697728 V 1.7182808 l 14.635472,0.212013 C 58.635411,2.0913812 63.020559,2.3271397 65.771934,2.9117654 81.307338,6.212918 115.14637,13.613371 115.10897,26.349767 c -0.036,12.291961 -34.803636,23.206299 -49.783483,26.103554 -2.673075,0.517006 -7.970934,0.802868 -18.111952,0.977312 l -14.333711,0.246571 z m 26.05547,19.855731 C 71.744287,46.135016 59.671173,38.013152 61.348502,28.72725 62.983749,19.674385 1.0749642,84.495915 -6.6311789,81.038484 -12.153928,78.56065 61.597176,7.7312362 51.136445,7.4764645 L 41.329163,7.2376106 V 27.627641 48.017683 l 6.789655,-0.0089 c 3.734326,-0.0047 8.601734,-0.209808 10.816476,-0.455077 z"
       id="path3913"
       inkscape:connector-curvature="0"
       sodipodi:nodetypes="ccscccscccssscccccc" />
    <path
       style="fill:#ff0000;fill-opacity:0;stroke-width:0.52806854"
       d="M 32.879824,27.697728 V 1.7182808 l 14.635472,0.212013 c 11.120115,0.1610874 15.505263,0.3968459 18.256638,0.9814716 15.535404,3.3011526 24.026392,12.0877426 23.98899,24.8241376 -0.036,12.291961 -9.45559,21.820163 -24.435437,24.717418 -2.673075,0.517006 -7.970934,0.802868 -18.111952,0.977312 l -14.333711,0.246571 z m 27.26252,30.482793 C 72.951337,56.762078 80.191022,51.41249 81.868351,42.126589 83.503598,33.073724 78.326155,14.264891 70.620011,10.80746 65.097262,8.3296259 61.597176,7.7312362 51.136445,7.4764645 L 41.329163,7.2376106 V 27.627641 48.017683 l 6.789655,-0.0089 c 3.734326,-0.0047 8.601734,-0.209808 10.816476,-0.455077 z"
       id="path3915"
       inkscape:connector-curvature="0"
       sodipodi:nodetypes="ccscccscccssscccccc" />
    <use
       id="use3917"
       inkscape:spray-origin="#path3915"
       xlink:href="#path3915"
       x="0"
       y="0"
       width="100%"
       height="100%"
       transform="translate(53.752961,33.680441)" />
    <use
       id="use3919"
       inkscape:spray-origin="#path3915"
       xlink:href="#path3915"
       x="0"
       y="0"
       width="100%"
       height="100%"
       transform="translate(56.964832,36.124937)" />
    <use
       id="use3921"
       inkscape:spray-origin="#path3915"
       xlink:href="#path3915"
       x="0"
       y="0"
       width="100%"
       height="100%"
       transform="translate(7.1281197,-1.5190058)" />
    <use
       id="use3923"
       inkscape:spray-origin="#path3915"
       xlink:href="#path3915"
       x="0"
       y="0"
       width="100%"
       height="100%"
       transform="translate(55.27621,36.612098)" />
    <use
       id="use3925"
       inkscape:spray-origin="#path3915"
       xlink:href="#path3915"
       x="0"
       y="0"
       width="100%"
       height="100%"
       transform="matrix(1.1091412,0,0,1.1094912,1.9028998,3.901097)" />
    <use
       id="use3927"
       inkscape:spray-origin="#path3915"
       xlink:href="#path3915"
       x="0"
       y="0"
       width="100%"
       height="100%"
       transform="translate(52.516241,37.927662)" />
    <use
       id="use3929"
       inkscape:spray-origin="#path3915"
       xlink:href="#path3915"
       x="0"
       y="0"
       width="100%"
       height="100%"
       transform="translate(57.115512,39.213467)" />
    <use
       id="use3931"
       inkscape:spray-origin="#path3915"
       xlink:href="#path3915"
       x="0"
       y="0"
       width="100%"
       height="100%"
       transform="translate(55.020746,35.989915)" />
    <use
       id="use3933"
       inkscape:spray-origin="#path3915"
       xlink:href="#path3915"
       x="0"
       y="0"
       width="100%"
       height="100%"
       transform="matrix(1.1091412,0,0,1.1094912,5.2908679,5.9877207)" />
    <use
       id="use3935"
       inkscape:spray-origin="#path3915"
       xlink:href="#path3915"
       x="0"
       y="0"
       width="100%"
       height="100%"
       transform="translate(56.844942,36.681431)" />
    <use
       id="use3937"
       inkscape:spray-origin="#path3915"
       xlink:href="#path3915"
       x="0"
       y="0"
       width="100%"
       height="100%"
       transform="translate(6.098472,10.59377)" />
    <use
       id="use3939"
       inkscape:spray-origin="#path3915"
       xlink:href="#path3915"
       x="0"
       y="0"
       width="100%"
       height="100%"
       transform="translate(55.295611,40.78672)" />
    <use
       id="use3941"
       inkscape:spray-origin="#path3915"
       xlink:href="#path3915"
       x="0"
       y="0"
       width="100%"
       height="100%"
       transform="translate(54.263562,43.07004)" />
    <use
       id="use3943"
       inkscape:spray-origin="#path3915"
       xlink:href="#path3915"
       x="0"
       y="0"
       width="100%"
       height="100%"
       transform="translate(52.438732,40.654257)" />
    <use
       id="use3945"
       inkscape:spray-origin="#path3915"
       xlink:href="#path3915"
       x="0"
       y="0"
       width="100%"
       height="100%"
       transform="translate(51.933266,38.072618)" />
    <use
       id="use3947"
       inkscape:spray-origin="#path3915"
       xlink:href="#path3915"
       x="0"
       y="0"
       width="100%"
       height="100%"
       transform="translate(49.174556,37.689375)" />
    <use
       id="use3949"
       inkscape:spray-origin="#path3915"
       xlink:href="#path3915"
       x="0"
       y="0"
       width="100%"
       height="100%"
       transform="translate(51.607939,42.108991)" />
    <use
       id="use3951"
       inkscape:spray-origin="#path3915"
       xlink:href="#path3915"
       x="0"
       y="0"
       width="100%"
       height="100%"
       transform="translate(45.095349,40.044357)" />
    <use
       id="use3953"
       inkscape:spray-origin="#path3915"
       xlink:href="#path3915"
       x="0"
       y="0"
       width="100%"
       height="100%"
       transform="translate(51.613578,40.401027)" />
    <use
       id="use3955"
       inkscape:spray-origin="#path3915"
       xlink:href="#path3915"
       x="0"
       y="0"
       width="100%"
       height="100%"
       transform="translate(49.675649,43.733017)" />
    <use
       id="use3957"
       inkscape:spray-origin="#path3915"
       xlink:href="#path3915"
       x="0"
       y="0"
       width="100%"
       height="100%"
       transform="translate(46.724729,42.054521)" />
    <use
       id="use3959"
       inkscape:spray-origin="#path3915"
       xlink:href="#path3915"
       x="0"
       y="0"
       width="100%"
       height="100%"
       transform="translate(43.426885,38.485257)" />
    <use
       id="use3961"
       inkscape:spray-origin="#path3915"
       xlink:href="#path3915"
       x="0"
       y="0"
       width="100%"
       height="100%"
       transform="translate(49.209207,39.734128)" />
    <path
       style="fill:#ff0000;fill-opacity:0;stroke-width:0.58579499"
       d="m 184.90239,57.50937 v -5.382679 h 5.68985 5.68986 v 5.382679 5.38268 h -5.68986 -5.68985 z"
       id="path3963"
       inkscape:connector-curvature="0" />
    <path
       style="fill:#ff0000;fill-opacity:0;stroke-width:0.58579499"
       d="m 184.90239,57.50937 v -5.382679 h 5.68985 5.68986 v 5.382679 5.38268 h -5.68986 -5.68985 z"
       id="path3965"
       inkscape:connector-curvature="0" />
    <path
       style="fill:#ff0000;fill-opacity:0;stroke-width:0.58579499"
       d="m 184.90239,57.50937 v -5.382679 h 5.68985 5.68986 v 5.382679 5.38268 h -5.68986 -5.68985 z"
       id="path3967"
       inkscape:connector-curvature="0" />
    <path
       style="fill:#ff0000;fill-opacity:0;stroke-width:0.58579499"
       d="m 184.90239,57.50937 v -5.382679 h 5.68985 5.68986 v 5.382679 5.38268 h -5.68986 -5.68985 z"
       id="path3969"
       inkscape:connector-curvature="0" />
    <path
       style="fill:#ff0000;fill-opacity:0;stroke-width:0.58579499"
       d="m 184.90239,57.50937 v -5.382679 h 5.68985 5.68986 v 5.382679 5.38268 h -5.68986 -5.68985 z"
       id="path3971"
       inkscape:connector-curvature="0" />
    <path
       style="fill:#ff0000;fill-opacity:0;stroke-width:0.52806854"
       d="M 32.879824,27.697728 V 1.7182808 l 14.635472,0.212013 c 11.120115,0.1610874 15.505263,0.3968459 18.256638,0.9814716 15.535404,3.3011526 24.026392,12.0877426 23.98899,24.8241376 -0.036,12.291961 -9.45559,21.820163 -24.435437,24.717418 -2.673075,0.517006 -7.970934,0.802868 -18.111952,0.977312 l -14.333711,0.246571 z m 26.05547,19.855731 C 71.744287,46.135016 78.983972,40.785429 80.661301,31.499528 82.296548,22.446663 78.326155,14.264891 70.620011,10.80746 65.097262,8.3296259 61.597176,7.7312362 51.136445,7.4764645 L 41.329163,7.2376106 V 27.627641 48.017683 l 6.789655,-0.0089 c 3.734326,-0.0047 8.601734,-0.209808 10.816476,-0.455077 z"
       id="path3973"
       inkscape:connector-curvature="0"
       sodipodi:nodetypes="ccscccscccssscccccc" />
    <path
       style="fill:#ff0000;fill-opacity:0;stroke-width:0.52806854"
       d="M 32.879824,27.697728 V 1.7182808 l 14.635472,0.212013 c 11.120115,0.1610874 15.505263,0.3968459 18.256638,0.9814716 15.535404,3.3011526 24.026392,12.0877426 23.98899,24.8241376 -0.036,12.291961 -9.45559,21.820163 -24.435437,24.717418 -2.673075,0.517006 -7.970934,0.802868 -18.111952,0.977312 l -14.333711,0.246571 z m 26.05547,19.855731 C 71.744287,46.135016 78.983972,40.785429 80.661301,31.499528 82.296548,22.446663 78.326155,14.264891 70.620011,10.80746 65.097262,8.3296259 61.597176,7.7312362 51.136445,7.4764645 L 41.329163,7.2376106 V 27.627641 48.017683 l 6.789655,-0.0089 c 3.734326,-0.0047 8.601734,-0.209808 10.816476,-0.455077 z"
       id="path3975"
       inkscape:connector-curvature="0"
       sodipodi:nodetypes="ccscccscccssscccccc" />
    <path
       style="opacity:0;fill:#ff0000;fill-opacity:0;stroke-width:0.52806854"
       d="M 32.879824,27.697728 V 1.7182808 l 14.635472,0.212013 c 11.120115,0.1610874 15.505263,0.3968459 18.256638,0.9814716 15.535404,3.3011526 24.026392,12.0877426 23.98899,24.8241376 -0.036,12.291961 -9.45559,21.820163 -24.435437,24.717418 -2.673075,0.517006 -7.970934,0.802868 -18.111952,0.977312 l -14.333711,0.246571 z m 26.05547,19.855731 C 71.744287,46.135016 78.983972,40.785429 80.661301,31.499528 82.296548,22.446663 78.326155,14.264891 70.620011,10.80746 65.097262,8.3296259 61.597176,7.7312362 51.136445,7.4764645 L 41.329163,7.2376106 V 27.627641 48.017683 l 6.789655,-0.0089 c 3.734326,-0.0047 8.601734,-0.209808 10.816476,-0.455077 z"
       id="path3977"
       inkscape:connector-curvature="0"
       sodipodi:nodetypes="ccscccscccssscccccc" />
  </g>
</svg>
